<svg width="71" height="71" viewBox="0 0 71 71" fill="none" xmlns="http://www.w3.org/2000/svg">
<path d="M36 61C50.3594 61 62 49.3594 62 35C62 20.6406 50.3594 8.99998 36 8.99998C21.6406 8.99998 10 20.6406 10 35C10 49.3594 21.6406 61 36 61Z" stroke="#DAECFF" stroke-width="5" stroke-linecap="round" stroke-linejoin="round"/>
<path d="M36 3V27" stroke="#DAECFF" stroke-width="5" stroke-linecap="round" stroke-linejoin="round"/>
<path d="M58 13L41 30" stroke="#DAECFF" stroke-width="5" stroke-linecap="round" stroke-linejoin="round"/>
<path d="M68 35H44" stroke="#DAECFF" stroke-width="5" stroke-linecap="round" stroke-linejoin="round"/>
<path d="M58 58L41 41" stroke="#DAECFF" stroke-width="5" stroke-linecap="round" stroke-linejoin="round"/>
<path d="M36 44V68" stroke="#DAECFF" stroke-width="5" stroke-linecap="round" stroke-linejoin="round"/>
<path d="M30 41L13 58" stroke="#DAECFF" stroke-width="5" stroke-linecap="round" stroke-linejoin="round"/>
<path d="M27 35H3" stroke="#DAECFF" stroke-width="5" stroke-linecap="round" stroke-linejoin="round"/>
<path d="M30 30L13 13" stroke="#DAECFF" stroke-width="5" stroke-linecap="round" stroke-linejoin="round"/>
<path d="M35.5 44C40.1944 44 44 40.1945 44 35.5C44 30.8056 40.1944 27 35.5 27C30.8056 27 27 30.8056 27 35.5C27 40.1945 30.8056 44 35.5 44Z" stroke="#DAECFF" stroke-width="5" stroke-linecap="round" stroke-linejoin="round"/>
</svg>