<svg width="826" height="499" viewBox="0 0 826 499" fill="none" xmlns="http://www.w3.org/2000/svg">
<path d="M3 22C27.6 31.5 52.2 41 105.5 41C208 41 208 3 310.5 3C417.1 3 408.9 41 515.5 41C618 41 618 3 720.5 3C773.8 3 798.4 12.5 823 22" stroke="#0087FF" stroke-opacity="0.1" stroke-width="5" stroke-linecap="round" stroke-linejoin="round"/>
<path d="M3 135.5C27.6 144.75 52.2 154 105.5 154C208 154 208 117 310.5 117C417.1 117 408.9 154 515.5 154C618 154 618 117 720.5 117C773.8 117 798.4 126.25 823 135.5" stroke="#0087FF" stroke-opacity="0.1" stroke-width="5" stroke-linecap="round" stroke-linejoin="round"/>
<path d="M3 249C27.6 258.5 52.2 268 105.5 268C208 268 208 230 310.5 230C417.1 230 408.9 268 515.5 268C618 268 618 230 720.5 230C773.8 230 798.4 239.5 823 249" stroke="#0087FF" stroke-opacity="0.1" stroke-width="5" stroke-linecap="round" stroke-linejoin="round"/>
<path d="M3 364C27.6 373.5 52.2 383 105.5 383C208 383 208 345 310.5 345C417.1 345 408.9 383 515.5 383C618 383 618 345 720.5 345C773.8 345 798.4 354.5 823 364" stroke="#0087FF" stroke-opacity="0.1" stroke-width="5" stroke-linecap="round" stroke-linejoin="round"/>
<path d="M3 477.5C27.6 486.75 52.2 496 105.5 496C208 496 208 459 310.5 459C417.1 459 408.9 496 515.5 496C618 496 618 459 720.5 459C773.8 459 798.4 468.25 823 477.5" stroke="#0087FF" stroke-opacity="0.1" stroke-width="5" stroke-linecap="round" stroke-linejoin="round"/>
</svg>